<svg width="18" height="19" viewBox="0 0 18 19" fill="none" xmlns="http://www.w3.org/2000/svg">
<path d="M16.1805 18.9588H1.61805C1.18907 18.9583 0.777832 18.7829 0.474498 18.471C0.171163 18.1592 0.000499602 17.7363 0 17.2953V6.20483H17.7985V17.2953C17.798 17.7363 17.6273 18.1592 17.324 18.471C17.0207 18.7829 16.6094 18.9583 16.1805 18.9588ZM5.39349 11.9877C5.25044 11.9877 5.11323 12.0461 5.01208 12.1501C4.91094 12.2541 4.85414 12.3951 4.85414 12.5422V12.6215C4.85414 12.7686 4.91094 12.9096 5.01208 13.0136C5.11323 13.1176 5.25044 13.176 5.39349 13.176H8.32132V16.1862C8.32132 16.3333 8.37819 16.4743 8.47933 16.5783C8.58048 16.6823 8.71762 16.7407 8.86067 16.7407H8.93783C9.08088 16.7407 9.21802 16.6823 9.31917 16.5783C9.42031 16.4743 9.47718 16.3333 9.47718 16.1862V13.176H12.405C12.5481 13.176 12.6853 13.1176 12.7864 13.0136C12.8876 12.9096 12.9444 12.7686 12.9444 12.6215V12.5422C12.9444 12.3951 12.8876 12.2541 12.7864 12.1501C12.6853 12.0461 12.5481 11.9877 12.405 11.9877H9.47718V8.97744C9.47718 8.83037 9.42031 8.68934 9.31917 8.58534C9.21802 8.48135 9.08088 8.42292 8.93783 8.42292H8.86067C8.71762 8.42292 8.58048 8.48135 8.47933 8.58534C8.37819 8.68934 8.32132 8.83037 8.32132 8.97744V11.9879L5.39349 11.9877Z" fill="white"/>
<path d="M14.0231 5.37288H0V4.26384C0 3.82263 0.170463 3.39949 0.473905 3.08751C0.777347 2.77553 1.18891 2.60027 1.61805 2.60027H2.42707V1.76849C2.42707 1.40082 2.5691 1.04821 2.82197 0.788229C3.07484 0.528247 3.41783 0.382187 3.77544 0.382187H4.31479C4.6724 0.382187 5.01539 0.528247 5.26826 0.788229C5.52113 1.04821 5.66316 1.40082 5.66316 1.76849V2.60027H7.2812V1.76849C7.2812 1.40082 7.42323 1.04821 7.6761 0.788229C7.92897 0.528247 8.27196 0.382187 8.62957 0.382187H9.16892C9.52653 0.382187 9.86953 0.528247 10.1224 0.788229C10.3753 1.04821 10.5173 1.40082 10.5173 1.76849V2.60027H12.1353V1.76849C12.1353 1.40082 12.2774 1.04821 12.5302 0.788229C12.7831 0.528247 13.1261 0.382187 13.4837 0.382187H14.0231C14.3807 0.382187 14.7237 0.528247 14.9765 0.788229C15.2294 1.04821 15.3714 1.40082 15.3714 1.76849V2.60027H16.1805C16.6096 2.60027 17.0211 2.77553 17.3246 3.08751C17.628 3.39949 17.7985 3.82263 17.7985 4.26384V5.37288H14.0231Z" fill="white"/>
</svg>
