<svg width="68" height="82" viewBox="0 0 68 82" fill="none" xmlns="http://www.w3.org/2000/svg">
<path d="M34.0001 34.8293L63.8538 64.6829L63.8538 74.6342L4.14649 74.6342L4.14649 64.6829L34.0001 34.8293Z" fill="#FAA9C6"/>
<path d="M34.0001 44.7805L63.8538 14.9269L63.8538 6.63418L4.14645 6.63418L4.14645 14.9269L34.0001 44.7805Z" fill="#C691FD"/>
<path d="M34 34.8293L34 64.6829L34 74.6342L4.14634 74.6342L4.14634 64.6829L34 34.8293Z" fill="#C691FD"/>
<path d="M34 44.7805L34 14.9269L33.9999 6.63417L4.14635 6.63418L4.14635 14.9269L34 44.7805Z" fill="#FAA9C6"/>
<path d="M33.9999 40.6342L28.195 34.8293H39.8047L33.9999 40.6342Z" fill="#E0527B"/>
<path d="M34 64.6829L24.0487 74.6341H43.9512L34 64.6829Z" fill="#E0527B"/>
<path d="M34 52.2439L36.4879 54.7318L34 57.2195L31.5122 54.7317L34 52.2439Z" fill="#E0527B"/>
<rect y="74.6342" width="68" height="6.63415" fill="#FD749B"/>
<rect width="68" height="6.63415" fill="#8847CD"/>
<rect width="34" height="6.63415" fill="#FD749B"/>
<rect y="74.6342" width="34" height="6.63415" fill="#8847CD"/>
</svg>
