<svg width="18" height="23" viewBox="0 0 18 23" fill="none" xmlns="http://www.w3.org/2000/svg">
<path d="M11.4922 19.4819H6.74178C6.56677 19.4819 6.41675 19.5819 6.31674 19.7317C6.21674 19.8816 6.21674 20.0814 6.31674 20.2313C6.44176 20.456 7.69187 22.4792 9.117 22.4792C10.5421 22.4792 11.7922 20.456 11.9172 20.2313C12.0173 20.0814 12.0173 19.8816 11.9172 19.7317C11.8422 19.5819 11.6672 19.4819 11.4922 19.4819ZM17.5428 15.7854L16.6177 14.3117C16.3927 13.9371 16.1426 13.2128 16.1176 12.7632L15.7176 7.64292C15.0425 8.16743 14.1674 8.49213 13.2424 8.49213C11.0422 8.49213 9.24201 6.6938 9.24201 4.49583C9.24201 3.22201 9.86706 2.07308 10.7921 1.34875C10.7671 1.34875 10.7421 1.32377 10.7421 1.32377C10.4921 0.524514 9.81706 0 8.99198 0C8.16691 0 7.49185 0.524514 7.24183 1.32377C4.49158 2.24792 2.4914 4.72063 2.26638 7.59296L1.86634 12.7632C1.84134 13.2128 1.59132 13.9371 1.3663 14.3117L0.441216 15.7854C-0.0588287 16.5846 -0.133836 17.3839 0.216196 18.0083C0.566227 18.6327 1.29129 18.9824 2.24138 18.9824H8.99198H15.7676C16.7177 18.9824 17.4427 18.6327 17.7928 18.0083C18.1428 17.3839 18.0428 16.5846 17.5428 15.7854Z" fill="#E5E5E5"/>
<path d="M13.9499 7.19346C15.6824 7.19346 17.1 5.77727 17.1 4.04638C17.1 2.31548 15.6824 0.899292 13.9499 0.899292C12.2173 0.899292 10.7998 2.31548 10.7998 4.04638C10.7998 5.77727 12.2173 7.19346 13.9499 7.19346Z" fill="#0F296D"/>
</svg>
