<svg width="21" height="21" viewBox="0 0 21 21" fill="none" xmlns="http://www.w3.org/2000/svg">
<path d="M1.27747 15.0101C1.27747 15.603 1.513 16.1716 1.93227 16.5909C2.35153 17.0101 2.92017 17.2457 3.51309 17.2457H16.9268C17.5198 17.2457 18.0884 17.0101 18.5077 16.5909C18.9269 16.1716 19.1625 15.603 19.1625 15.0101V8.86209H1.27747V15.0101ZM3.91231 11.976C3.91231 11.6584 4.03849 11.3537 4.26309 11.1291C4.4877 10.9045 4.79233 10.7783 5.10997 10.7783H7.02622C7.34385 10.7783 7.64848 10.9045 7.87309 11.1291C8.09769 11.3537 8.22387 11.6584 8.22387 11.976V12.7744C8.22387 13.0921 8.09769 13.3967 7.87309 13.6213C7.64848 13.8459 7.34385 13.9721 7.02622 13.9721H5.10997C4.79233 13.9721 4.4877 13.8459 4.26309 13.6213C4.03849 13.3967 3.91231 13.0921 3.91231 12.7744V11.976Z" fill="white"/>
<path d="M16.9268 3.19266H3.51309C2.92017 3.19266 2.35153 3.4282 1.93227 3.84746C1.513 4.26672 1.27747 4.83536 1.27747 5.42828V6.46625H19.1625V5.42828C19.1625 4.83536 18.9269 4.26672 18.5077 3.84746C18.0884 3.4282 17.5198 3.19266 16.9268 3.19266Z" fill="white"/>
</svg>
