<svg width="14" height="14" viewBox="0 0 14 14" fill="none" xmlns="http://www.w3.org/2000/svg">
<path d="M13.493 11.9707L9.88969 8.47329C9.71811 8.30585 9.52746 8.21284 9.31774 8.19423L9.10803 7.9896C9.75623 7.11523 10.1185 6.11065 10.1185 5.06885C10.1185 2.42716 7.90694 0.269165 5.19973 0.269165C2.51158 0.287768 0.300049 2.44577 0.300049 5.06885C0.300049 7.71054 2.51158 9.86854 5.21879 9.86854C6.21017 9.86854 7.10622 9.6081 7.88788 9.0872L8.09759 9.29184C8.11665 9.53368 8.21198 9.75692 8.38356 9.92435L12.0059 13.459C12.1965 13.6636 12.4635 13.7567 12.7494 13.7567C13.0163 13.7567 13.3023 13.645 13.493 13.459C13.6836 13.273 13.798 12.9939 13.798 12.7149C13.8171 12.4358 13.7027 12.1568 13.493 11.9707ZM5.1616 8.08261C3.46482 8.08261 2.07308 6.72456 2.07308 5.06885C2.07308 3.41315 3.46482 2.0551 5.1616 2.0551C6.8965 2.0551 8.25011 3.39454 8.25011 5.06885C8.25011 6.74316 6.85837 8.08261 5.1616 8.08261Z" fill="#CCCCCC"/>
</svg>
